<?xml version="1.0" encoding="UTF-8" standalone="no"?>
<svg
   xmlns:dc="http://purl.org/dc/elements/1.1/"
   xmlns:cc="http://creativecommons.org/ns#"
   xmlns:rdf="http://www.w3.org/1999/02/22-rdf-syntax-ns#"
   xmlns:svg="http://www.w3.org/2000/svg"
   xmlns="http://www.w3.org/2000/svg"
   xmlns:sodipodi="http://sodipodi.sourceforge.net/DTD/sodipodi-0.dtd"
   xmlns:inkscape="http://www.inkscape.org/namespaces/inkscape"
   version="1.1"
   x="0px"
   y="0px"
   viewBox="0 0 24 30"
   style="enable-background:new 0 0 24 24;"
   xml:space="preserve"
   id="svg22"
   sodipodi:docname="Fehler allgemein.svg"
   inkscape:version="0.92.2 (5c3e80d, 2017-08-06)"><metadata
     id="metadata28"><rdf:RDF><cc:Work
         rdf:about=""><dc:format>image/svg+xml</dc:format><dc:type
           rdf:resource="http://purl.org/dc/dcmitype/StillImage" /><dc:title></dc:title></cc:Work></rdf:RDF></metadata><defs
     id="defs26" /><sodipodi:namedview
     pagecolor="#ffffff"
     bordercolor="#666666"
     borderopacity="1"
     objecttolerance="10"
     gridtolerance="10"
     guidetolerance="10"
     inkscape:pageopacity="0"
     inkscape:pageshadow="2"
     inkscape:window-width="1920"
     inkscape:window-height="1017"
     id="namedview24"
     showgrid="false"
     showborder="false"
     inkscape:zoom="11.125147"
     inkscape:cx="23.973739"
     inkscape:cy="5.7157669"
     inkscape:window-x="-8"
     inkscape:window-y="-8"
     inkscape:window-maximized="1"
     inkscape:current-layer="g16" /><g
     id="g16"
     style="fill:none;stroke:#000000;stroke-opacity:1;stroke-width:0.4;stroke-miterlimit:4;stroke-dasharray:none"><path
       d="m 7.3744237,18.58478 c -0.248,-0.124 -0.547,-0.023 -0.671,0.224 l -1,2 c -0.124,0.247 -0.023,0.547 0.224,0.671 0.071,0.035 0.147,0.052 0.223,0.052 0.184,0 0.36,-0.101 0.448,-0.276 l 1,-2 c 0.123,-0.247 0.023,-0.548 -0.224,-0.671 z"
       id="path2"
       style="fill:none;stroke:#000000;stroke-width:0.6;stroke-miterlimit:4;stroke-dasharray:none;stroke-opacity:1"
       inkscape:connector-curvature="0" /><path
       d="M17.724,18.553c-0.248-0.124-0.547-0.023-0.671,0.224l-1,2c-0.124,0.247-0.023,0.547,0.224,0.671   c0.072,0.036,0.148,0.053,0.223,0.053c0.184,0,0.36-0.101,0.448-0.276l1-2C18.071,18.977,17.971,18.676,17.724,18.553z"
       id="path4"
       style="fill:none;stroke:#000000;stroke-opacity:1;stroke-width:0.6;stroke-miterlimit:4;stroke-dasharray:none" /><path
       d="M7.724,14.553c-0.248-0.123-0.547-0.023-0.671,0.224l-1,2c-0.124,0.247-0.023,0.547,0.224,0.671   C6.348,17.483,6.424,17.5,6.5,17.5c0.184,0,0.36-0.101,0.448-0.276l1-2C8.071,14.977,7.971,14.676,7.724,14.553z"
       id="path6"
       style="fill:none;stroke:#000000;stroke-opacity:1;stroke-width:0.6;stroke-miterlimit:4;stroke-dasharray:none" /><path
       d="M17.724,14.553c-0.248-0.123-0.547-0.023-0.671,0.224l-1,2c-0.124,0.247-0.023,0.547,0.224,0.671   c0.072,0.036,0.148,0.053,0.223,0.053c0.184,0,0.36-0.101,0.448-0.276l1-2C18.071,14.977,17.971,14.676,17.724,14.553z"
       id="path8"
       style="fill:none;stroke:#000000;stroke-opacity:1;stroke-width:0.6;stroke-miterlimit:4;stroke-dasharray:none" /><path
       d="M15.658,10.526l-3-1c-0.144-0.049-0.3-0.029-0.428,0.053c-0.127,0.082-0.211,0.216-0.228,0.366l-0.421,3.787l-1.358-0.679   c-0.139-0.07-0.303-0.07-0.443-0.002c-0.14,0.068-0.24,0.198-0.271,0.351l-1.5,7.5c-0.047,0.234,0.078,0.469,0.299,0.56   C8.371,21.488,8.436,21.5,8.5,21.5c0.163,0,0.321-0.08,0.416-0.223l2.755-4.133l1.605,0.803c0.132,0.066,0.285,0.072,0.42,0.012   c0.135-0.058,0.238-0.172,0.281-0.313l2-6.5C16.058,10.887,15.916,10.611,15.658,10.526z"
       id="path10"
       style="fill:none;stroke:#000000;stroke-opacity:1;stroke-width:0.6;stroke-miterlimit:4;stroke-dasharray:none" /><path
       d="M18.5,6.5c-0.413,0-0.834,0.056-1.278,0.169C15.96,4.123,13.369,2.5,10.5,2.5c-3.658,0-6.776,2.655-7.387,6.229   C1.264,9.326,0,11.036,0,13c0,2.481,2.019,4.5,4.5,4.5h0.009c0.007,0,0.013,0,0.02,0c0.276,0,0.5-0.224,0.5-0.5   c0-0.043-0.005-0.086-0.016-0.126c0.014-0.196,0.062-0.379,0.145-0.544l1-2c0.318-0.633,1.072-0.965,1.752-0.769   c0.134,0.038,0.277,0.02,0.395-0.052c0.119-0.071,0.203-0.188,0.232-0.323c0.098-0.454,0.391-0.83,0.804-1.032   c0.276-0.135,0.592-0.182,0.897-0.134c0.135,0.021,0.273-0.013,0.383-0.096c0.109-0.083,0.179-0.207,0.194-0.343l0.194-1.746   c0.05-0.453,0.299-0.853,0.682-1.098c0.378-0.241,0.858-0.301,1.283-0.16l3,1c0.78,0.26,1.201,1.079,0.959,1.865l-0.46,1.495   c-0.054,0.175-0.007,0.366,0.121,0.497c0.128,0.131,0.318,0.179,0.495,0.131c0.364-0.105,0.75-0.073,1.082,0.094   c0.74,0.37,1.041,1.273,0.671,2.013l-0.54,1.081c-0.08,0.159-0.068,0.348,0.029,0.497c0.097,0.148,0.268,0.238,0.443,0.226   C21.705,17.328,24,14.923,24,12C24,8.967,21.533,6.5,18.5,6.5z"
       id="path12"
       style="fill:none;stroke:#000000;stroke-opacity:1;stroke-width:0.6;stroke-miterlimit:4;stroke-dasharray:none" /><path
       d="M12.724,18.553c-0.247-0.124-0.547-0.023-0.671,0.224l-1,2c-0.124,0.247-0.023,0.547,0.224,0.671   c0.072,0.036,0.148,0.053,0.223,0.053c0.184,0,0.36-0.101,0.448-0.276l1-2C13.071,18.977,12.971,18.676,12.724,18.553z"
       id="path14"
       style="fill:none;stroke:#000000;stroke-opacity:1;stroke-width:0.6;stroke-miterlimit:4;stroke-dasharray:none" /></g></svg>