<?xml version="1.0" encoding="UTF-8" standalone="no"?>
<svg
   xmlns:dc="http://purl.org/dc/elements/1.1/"
   xmlns:cc="http://creativecommons.org/ns#"
   xmlns:rdf="http://www.w3.org/1999/02/22-rdf-syntax-ns#"
   xmlns:svg="http://www.w3.org/2000/svg"
   xmlns="http://www.w3.org/2000/svg"
   xmlns:sodipodi="http://sodipodi.sourceforge.net/DTD/sodipodi-0.dtd"
   xmlns:inkscape="http://www.inkscape.org/namespaces/inkscape"
   version="1.1"
   x="0px"
   y="0px"
   viewBox="0 0 100 125"
   style="enable-background:new 0 0 100 100;"
   xml:space="preserve"
   id="svg12"
   sodipodi:docname="Milch.svg"
   inkscape:version="0.92.2 (5c3e80d, 2017-08-06)"><metadata
     id="metadata18"><rdf:RDF><cc:Work
         rdf:about=""><dc:format>image/svg+xml</dc:format><dc:type
           rdf:resource="http://purl.org/dc/dcmitype/StillImage" /><dc:title></dc:title></cc:Work></rdf:RDF></metadata><defs
     id="defs16" /><sodipodi:namedview
     pagecolor="#ffffff"
     bordercolor="#666666"
     borderopacity="1"
     objecttolerance="10"
     gridtolerance="10"
     guidetolerance="10"
     inkscape:pageopacity="0"
     inkscape:pageshadow="2"
     inkscape:window-width="1920"
     inkscape:window-height="1017"
     id="namedview14"
     showgrid="false"
     showborder="false"
     inkscape:zoom="1.888"
     inkscape:cx="50"
     inkscape:cy="62.5"
     inkscape:window-x="-8"
     inkscape:window-y="-8"
     inkscape:window-maximized="1"
     inkscape:current-layer="svg12" /><g
     id="g6"><path
       d="M70.1,37.9l-4.6-11.5V20c0-1.7-1.4-3-3-3H37.6c-1.7,0-3,1.4-3,3v6.2l-4.6,11.6c-0.3,0.7-0.4,1.5-0.4,2.2v40.2   c0,1.4,1.2,2.6,2.6,2.6h35.8c1.4,0,2.6-1.2,2.6-2.6V40.1C70.5,39.4,70.4,38.6,70.1,37.9z M68,38.2H32l4.3-10.7h27.5L68,38.2z    M36.6,20c0-0.6,0.5-1,1-1h24.8c0.6,0,1,0.5,1,1v5.4H36.6V20z M67.9,81H32.1c-0.3,0-0.6-0.3-0.6-0.6V40.2h37v40.2   C68.5,80.7,68.2,81,67.9,81z"
       id="path2" /><path
       d="M62.6,54.9h-3.7c-0.1-0.3-0.2-0.5-0.3-0.7c0.6-2.6,0.4-4.9-0.4-6.7c-0.4-0.9-1.2-1.4-2.2-1.4h0c-0.7,0-1.3,0.3-1.8,0.8   c-0.5,0.5-0.7,1.1-0.7,1.8c0.1,1.5-0.1,2.5-0.4,3.1h-0.9h-2h-2h-0.9c-0.3-0.6-0.4-1.6-0.4-3.1c0-0.7-0.2-1.3-0.7-1.8   c-0.5-0.5-1.1-0.8-1.8-0.8c-0.9,0-1.8,0.5-2.2,1.4c-0.9,1.8-1,4.1-0.4,6.7c-0.1,0.2-0.2,0.5-0.3,0.7H38c-0.7,0-1.4,0.3-1.8,0.9   c-0.4,0.6-0.5,1.3-0.3,2c0.6,1.7,2.1,3.6,4.8,3.6c0.5,0,1-0.1,1.5-0.2l2.1,6.8c-0.5,0.8-0.7,1.7-0.6,2.6c0.3,1.7,1.8,3,3.5,3h3.1   h0.1h3.1c1.7,0,3.3-1.3,3.5-3c0.1-0.9-0.1-1.8-0.6-2.6l2.1-6.8c0.5,0.1,1,0.2,1.5,0.2c2.7,0,4.2-1.9,4.8-3.6c0.2-0.7,0.1-1.4-0.3-2   C63.9,55.2,63.3,54.9,62.6,54.9z M59.9,59.3c-0.7,0-1.5-0.2-2.5-0.6c0,0-0.1,0-0.1,0c-0.1,0-0.3,0.1-0.3,0.2l-2.7,8.6   c-0.2,0.6,0,1.2,0.3,1.6c0.2,0.3,0.3,0.7,0.3,1.1c-0.1,0.7-0.8,1.2-1.5,1.2c-0.7,0-1.9,0-3.1,0c0,0-0.1,0-0.1,0c-1.2,0-2.3,0-3.1,0   c-0.7,0-1.4-0.5-1.5-1.2c-0.1-0.4,0-0.8,0.3-1.1c0.3-0.5,0.5-1.1,0.3-1.6l-2.7-8.6c0-0.1-0.2-0.2-0.3-0.2c0,0-0.1,0-0.1,0   c-1,0.5-1.8,0.6-2.5,0.6c-2,0-2.6-1.6-2.8-2.2c0-0.1,0-0.2,0.2-0.2h5.2c0.1,0,0.2-0.1,0.2-0.2c0-0.1,0-0.2,0.1-0.3   c0-0.7,0.3-1.4,0.8-1.8c-0.4-1.5-1-4.1,0.1-6.2c0.1-0.2,0.2-0.2,0.4-0.2c0.2,0,0.4,0.2,0.4,0.4c-0.1,1.6,0,4.2,1.4,5.3   c1.2,0,2.6,0,3.8,0c0,0,0,0,0,0c1.3,0,2.6,0,3.8,0c1.4-1.1,1.5-3.6,1.4-5.3c0-0.3,0.2-0.4,0.4-0.4c0.1,0,0.3,0.1,0.4,0.2   c1,2.1,0.5,4.7,0.1,6.2c0.5,0.5,0.8,1.1,0.8,1.8c0,0.1,0.1,0.2,0.1,0.3c0,0.1,0.1,0.2,0.2,0.2h5.2c0.1,0,0.2,0.1,0.2,0.2   C62.6,57.7,61.9,59.3,59.9,59.3z"
       id="path4" /></g></svg>