<?xml version="1.0" encoding="UTF-8" standalone="no"?>
<svg
   xmlns:dc="http://purl.org/dc/elements/1.1/"
   xmlns:cc="http://creativecommons.org/ns#"
   xmlns:rdf="http://www.w3.org/1999/02/22-rdf-syntax-ns#"
   xmlns:svg="http://www.w3.org/2000/svg"
   xmlns="http://www.w3.org/2000/svg"
   xmlns:sodipodi="http://sodipodi.sourceforge.net/DTD/sodipodi-0.dtd"
   xmlns:inkscape="http://www.inkscape.org/namespaces/inkscape"
   version="1.1"
   x="0px"
   y="0px"
   viewBox="0 0 100 125"
   enable-background="new 0 0 100 100"
   xml:space="preserve"
   id="svg18"
   sodipodi:docname="Reinigung.svg"
   inkscape:version="0.92.2 (5c3e80d, 2017-08-06)"><metadata
     id="metadata24"><rdf:RDF><cc:Work
         rdf:about=""><dc:format>image/svg+xml</dc:format><dc:type
           rdf:resource="http://purl.org/dc/dcmitype/StillImage" /><dc:title></dc:title></cc:Work></rdf:RDF></metadata><defs
     id="defs22" /><sodipodi:namedview
     pagecolor="#ffffff"
     bordercolor="#666666"
     borderopacity="1"
     objecttolerance="10"
     gridtolerance="10"
     guidetolerance="10"
     inkscape:pageopacity="0"
     inkscape:pageshadow="2"
     inkscape:window-width="1920"
     inkscape:window-height="1017"
     id="namedview20"
     showgrid="false"
     showborder="false"
     inkscape:zoom="1.888"
     inkscape:cx="50"
     inkscape:cy="62.5"
     inkscape:window-x="-8"
     inkscape:window-y="-8"
     inkscape:window-maximized="1"
     inkscape:current-layer="g10" /><g
     id="g12"><g
       id="g10"><path
         fill="#000000"
         d="M86.117,46.734h-3.185v-3.069c0-1.104-0.896-2-2-2h-2.936l0.048-1.381h4.675c1.104,0,2-0.896,2-2v-11.44    c0-1.104-0.896-2-2-2h-3.902c-0.333-5.044-4.254-9.124-9.233-9.685c-2.441-4.728-7.281-7.716-12.664-7.716    c-2.907,0-5.742,0.899-8.123,2.556c-1.721-0.896-3.626-1.365-5.587-1.365c-4.538,0-8.667,2.553-10.74,6.499    c-0.293-0.026-0.586-0.039-0.88-0.039c-5.522,0-10.047,4.315-10.404,9.75H17.28c-1.104,0-2,0.896-2,2v11.44c0,1.104,0.896,2,2,2    h4.675l0.048,1.381h-2.936c-1.104,0-2,0.896-2,2v3.069h-3.185c-1.104,0-2,0.896-2,2c0,10.65,4.33,20.299,11.307,27.261    l0.394,11.361c0.121,3.497,2.957,6.237,6.457,6.237h39.92c3.5,0,6.336-2.74,6.457-6.237l0.394-11.361    c6.977-6.963,11.307-16.61,11.307-27.261C88.117,47.63,87.222,46.734,86.117,46.734z M78.933,51.804h-1.285l0.212-6.139h1.073    V51.804z M31.59,19.094c0.517,0,1.036,0.068,1.588,0.208c1.001,0.255,2.028-0.294,2.376-1.266    c1.154-3.231,4.231-5.402,7.656-5.402c1.647,0,3.237,0.494,4.599,1.429c0.745,0.514,1.746,0.46,2.436-0.132    c1.865-1.604,4.236-2.487,6.676-2.487c4.188,0,7.92,2.518,9.508,6.415c0.308,0.753,1.039,1.245,1.853,1.245    c0.049,0,0.127-0.004,0.195-0.01c3.288,0.033,5.994,2.544,6.337,5.75h-5.75c-1.104,0-2,0.896-2,2v10.813    c0,1.62-1.317,2.938-2.938,2.938s-2.938-1.317-2.938-2.938V26.854c0-0.003,0.001-0.007,0.001-0.01c0-1.104-0.896-2-2-2h-0.001h-34    C25.532,21.616,28.272,19.094,31.59,19.094z M21.067,45.665h1.073l0.212,6.139h-1.285V45.665z M72.419,87.218    c-0.046,1.332-1.126,2.376-2.459,2.376H30.04c-1.333,0-2.413-1.044-2.459-2.376l-0.265-7.65    c6.343,4.747,14.192,7.561,22.684,7.561s16.341-2.813,22.684-7.561L72.419,87.218z M50,83.128    c-18.146,0-33.023-14.356-34.055-32.394h1.122v3.069c0,1.104,0.896,2,2,2h3.424l0.359,10.398c0.038,1.08,0.925,1.931,1.998,1.931    c0.023,0,0.047,0,0.07-0.001c1.104-0.038,1.968-0.964,1.93-2.068l-0.891-25.779H50c1.104,0,2-0.896,2-2s-0.896-2-2-2H19.28v-7.44    h3.97h33.938v8.813c0,3.825,3.112,6.938,6.938,6.938s6.938-3.112,6.938-6.938v-8.813h5.688h3.97v7.44h-5.554c-1.104,0-2,0.896-2,2    c0,0.692,0.353,1.303,0.888,1.661l-0.887,25.653c-0.038,1.104,0.826,2.03,1.93,2.068c0.023,0.001,0.047,0.001,0.07,0.001    c1.072,0,1.96-0.851,1.998-1.931l0.344-9.934h3.424c1.104,0,2-0.896,2-2v-3.069h1.128C83.029,68.771,68.146,83.128,50,83.128z"
         id="path2" /><path
         fill="#000000"
         d="M26.479,10.26c0.25,0.1,0.5,0.15,0.771,0.15c0.53,0,1.03-0.21,1.41-0.591C28.85,9.63,29,9.41,29.1,9.17    c0.101-0.24,0.15-0.5,0.15-0.76c0-0.13-0.01-0.271-0.04-0.391c-0.03-0.13-0.061-0.26-0.11-0.38s-0.12-0.24-0.189-0.34    c-0.07-0.11-0.16-0.22-0.25-0.31c-0.46-0.46-1.15-0.681-1.801-0.551c-0.13,0.03-0.26,0.07-0.38,0.12S26.25,6.67,26.14,6.74    c-0.109,0.079-0.21,0.159-0.3,0.25c-0.1,0.09-0.18,0.199-0.25,0.31c-0.08,0.1-0.14,0.22-0.19,0.34    c-0.05,0.12-0.09,0.25-0.109,0.38c-0.03,0.12-0.04,0.261-0.04,0.391c0,0.529,0.21,1.029,0.59,1.409    C26.02,10.01,26.24,10.149,26.479,10.26z"
         id="path4" /><path
         fill="#000000"
         d="M72.33,12.45c0.08,0.109,0.16,0.21,0.25,0.31c0.38,0.38,0.89,0.58,1.42,0.58c0.27,0,0.52-0.05,0.76-0.15    c0.25-0.1,0.46-0.239,0.65-0.43c0.38-0.38,0.59-0.88,0.59-1.41c0-0.14-0.01-0.27-0.04-0.399c-0.021-0.131-0.061-0.25-0.11-0.37    s-0.12-0.24-0.189-0.351c-0.07-0.109-0.15-0.21-0.25-0.3c-0.74-0.75-2.08-0.75-2.83,0c-0.09,0.09-0.17,0.19-0.24,0.3    c-0.08,0.11-0.14,0.23-0.19,0.351c-0.05,0.12-0.09,0.25-0.109,0.37C72.01,11.08,72,11.21,72,11.35c0,0.13,0.01,0.26,0.04,0.391    c0.02,0.119,0.06,0.25,0.109,0.369C72.2,12.229,72.26,12.34,72.33,12.45z"
         id="path6" /><path
         fill="#000000"
         d="M24.649,11.41c-0.119-0.051-0.239-0.08-0.369-0.11c-0.261-0.05-0.53-0.05-0.78,0    c-0.13,0.03-0.26,0.06-0.38,0.11c-0.12,0.05-0.23,0.12-0.34,0.189c-0.11,0.07-0.221,0.15-0.311,0.25    c-0.37,0.37-0.58,0.88-0.58,1.41c0,0.271,0.05,0.521,0.15,0.771c0.1,0.239,0.24,0.46,0.43,0.64c0.38,0.38,0.88,0.59,1.42,0.59    c0.53,0,1.03-0.21,1.41-0.59c0.19-0.18,0.34-0.4,0.44-0.64c0.1-0.25,0.149-0.5,0.149-0.771c0-0.53-0.22-1.04-0.59-1.41    c-0.09-0.1-0.19-0.18-0.3-0.25C24.89,11.53,24.77,11.46,24.649,11.41z"
         id="path8" /></g></g></svg>